<?xml version="1.0" encoding="utf-8"?>
<!-- Generator: Adobe Illustrator 21.0.2, SVG Export Plug-In . SVG Version: 6.00 Build 0)  -->
<svg version="1.1" id="Layer_1" xmlns="http://www.w3.org/2000/svg" xmlns:xlink="http://www.w3.org/1999/xlink" x="0px" y="0px"
	 viewBox="0 0 480 290" style="enable-background:new 0 0 480 290;" xml:space="preserve">
<style type="text/css">
	.st0{clip-path:url(#SVGID_2_);fill:#FFFFFF;}
	.st1{fill:none;stroke:#3D0E85;stroke-width:2;stroke-miterlimit:10;}
	.st2{clip-path:url(#SVGID_4_);fill:#FFFFFF;}
	.st3{clip-path:url(#SVGID_6_);fill:#FFFFFF;}
	.st4{clip-path:url(#SVGID_8_);fill:#FFFFFF;}
	.st5{clip-path:url(#SVGID_10_);fill:#FFFFFF;}
	.st6{fill:none;stroke:#0BBEFD;stroke-width:2;stroke-miterlimit:10;}
	.st7{clip-path:url(#SVGID_12_);fill:#FFFFFF;}
	.st8{clip-path:url(#SVGID_14_);fill:#FFFFFF;}
	.st9{clip-path:url(#SVGID_16_);fill:#FFFFFF;}
	.st10{clip-path:url(#SVGID_18_);fill:#FFFFFF;}
	.st11{clip-path:url(#SVGID_20_);fill:#FFFFFF;}
	.st12{clip-path:url(#SVGID_22_);fill:#FFFFFF;}
	.st13{clip-path:url(#SVGID_24_);fill:#FFFFFF;}
	.st14{clip-path:url(#SVGID_26_);fill:#FFFFFF;}
	.st15{clip-path:url(#SVGID_28_);fill:#FFFFFF;}
	.st16{clip-path:url(#SVGID_30_);fill:#FFFFFF;}
	.st17{clip-path:url(#SVGID_32_);fill:#FFFFFF;}
	.st18{clip-path:url(#SVGID_34_);fill:#FFFFFF;}
	.st19{clip-path:url(#SVGID_36_);fill:#0BBEFD;}
	.st20{clip-path:url(#SVGID_38_);fill:#FFFFFF;}
	.st21{clip-path:url(#SVGID_40_);fill:#FFFFFF;}
	.st22{clip-path:url(#SVGID_42_);fill:#FFFFFF;}
	.st23{clip-path:url(#SVGID_44_);fill:#FFFFFF;}
	.st24{clip-path:url(#SVGID_46_);fill:#FFFFFF;}
	.st25{clip-path:url(#SVGID_48_);fill:#0BBEFD;}
	.st26{clip-path:url(#SVGID_50_);fill:#FFFFFF;}
	.st27{clip-path:url(#SVGID_52_);fill:#FFFFFF;}
	.st28{clip-path:url(#SVGID_54_);fill:#FFFFFF;}
	.st29{clip-path:url(#SVGID_56_);fill:#FFFFFF;}
	.st30{clip-path:url(#SVGID_58_);fill:#0BBEFD;}
	.st31{clip-path:url(#SVGID_60_);fill:#FFFFFF;}
	.st32{clip-path:url(#SVGID_62_);fill:#0BBEFD;}
	.st33{clip-path:url(#SVGID_64_);fill:#0BBEFD;}
	.st34{clip-path:url(#SVGID_66_);fill:#FFFFFF;}
	.st35{clip-path:url(#SVGID_68_);fill:#0BBEFD;}
	.st36{clip-path:url(#SVGID_70_);fill:#FFFFFF;}
	.st37{clip-path:url(#SVGID_72_);fill:#FFFFFF;}
	.st38{clip-path:url(#SVGID_74_);fill:#420C88;}
</style>
<g>
	<g>
		<g>
			<defs>
				<rect id="SVGID_1_" x="107.9" y="80.6" width="12.6" height="32.1"/>
			</defs>
			<clipPath id="SVGID_2_">
				<use xlink:href="#SVGID_1_"  style="overflow:visible;"/>
			</clipPath>
			<rect x="102.9" y="75.6" class="st0" width="22.6" height="42.1"/>
		</g>
	</g>
</g>
<polygon class="st1" points="107.9,112.8 120.5,112.8 120.5,80.6 107.9,80.6 "/>
<g>
	<g>
		<g>
			<defs>
				<rect id="SVGID_3_" x="410.3" y="245.9" width="13.8" height="42.5"/>
			</defs>
			<clipPath id="SVGID_4_">
				<use xlink:href="#SVGID_3_"  style="overflow:visible;"/>
			</clipPath>
			<rect x="405.3" y="240.9" class="st2" width="23.8" height="52.4"/>
		</g>
	</g>
</g>
<g>
	<polygon class="st1" points="424,288.8 410.3,288.8 410.3,245.9 424,245.9 	"/>
</g>
<g>
	<g>
		<g>
			<defs>
				<path id="SVGID_5_" d="M393,163.9c-4.5,13.9-3.4,12-10,15.5c-7.5,4-3.7,2.3-8.3,11.4c-9.1,17.7-2.7,48.1,11.5,58.8
					c16.4,12.4,45.9,14.4,63,1.7c13.2-9.7,19.4-30.4,0.1-37.6c9.9-6.3,8-16.1,3.7-22.2c-2.9-4.2-9.7-4.9-11.7-9.9
					c-1.9-4.8,5.1-11.7,1.1-19.5C432.1,142,403.3,132.5,393,163.9"/>
			</defs>
			<clipPath id="SVGID_6_">
				<use xlink:href="#SVGID_5_"  style="overflow:visible;"/>
			</clipPath>
			<rect x="365.5" y="138.6" class="st3" width="101" height="126.3"/>
		</g>
	</g>
</g>
<path class="st1" d="M393,163.9c-4.5,13.9-3.4,12-10,15.5c-7.5,4-3.7,2.3-8.3,11.4c-9.1,17.7-2.7,48.1,11.5,58.8
	c16.4,12.4,45.9,14.4,63,1.7c13.2-9.7,19.4-30.4,0.1-37.5c9.9-6.3,8-16.1,3.7-22.2c-2.9-4.2-9.7-4.9-11.7-9.9
	c-1.9-4.8,5.1-11.7,1.1-19.5C432.1,142,403.3,132.5,393,163.9L393,163.9z"/>
<g>
	<g>
		<g>
			<defs>
				<polyline id="SVGID_7_" points="221.5,206.9 221.5,125.4 337.5,125.4 337.5,205.7 				"/>
			</defs>
			<clipPath id="SVGID_8_">
				<use xlink:href="#SVGID_7_"  style="overflow:visible;"/>
			</clipPath>
			<rect x="216.6" y="120.4" class="st4" width="125.9" height="91.5"/>
		</g>
	</g>
</g>
<polyline class="st1" points="221.5,206.9 221.5,125.4 337.5,125.4 337.5,205.7 "/>
<g>
	<g>
		<g>
			<defs>
				<polyline id="SVGID_9_" points="311.1,171.9 302.5,171.9 302.5,205.7 				"/>
			</defs>
			<clipPath id="SVGID_10_">
				<use xlink:href="#SVGID_9_"  style="overflow:visible;"/>
			</clipPath>
			<rect x="297.5" y="166.9" class="st5" width="18.6" height="43.8"/>
		</g>
	</g>
</g>
<path class="st6" d="M311.1,171.9h-8.6v34.5 M309.2,171.9c-2.4,2.7-0.7,7.8-2.1,11.2c-0.7,1.7-2.2,2.9-3.2,4.4
	c-0.9,1.4-1.7,3.3-1.5,4.9"/>
<g>
	<g>
		<g>
			<defs>
				<path id="SVGID_11_" d="M279.8,191.4c11.1,0,15.4,2.3,16.2,6.9c0.8,4.6,0.1,9.2,0.1,9.2H291v-4.6h-9.8"/>
			</defs>
			<clipPath id="SVGID_12_">
				<use xlink:href="#SVGID_11_"  style="overflow:visible;"/>
			</clipPath>
			<rect x="274.8" y="186.4" class="st7" width="26.6" height="26"/>
		</g>
	</g>
</g>
<path class="st6" d="M279.8,191.4c11.1,0,15.4,2.3,16.2,6.9c0.8,4.6,0.1,9.2,0.1,9.2H291v-4.6h-10.4"/>
<path class="st1" d="M280.1,206.9v-55.1h32.1v55.1 M247.9,173.6h12.6v-21.8h-12.6V173.6L247.9,173.6z"/>
<g>
	<g>
		<g>
			<defs>
				<polyline id="SVGID_13_" points="24.3,288.4 24.3,223 18.6,223 18.6,212.6 88.4,212.6 88.4,288.4 				"/>
			</defs>
			<clipPath id="SVGID_14_">
				<use xlink:href="#SVGID_13_"  style="overflow:visible;"/>
			</clipPath>
			<rect x="13.6" y="207.6" class="st8" width="79.8" height="85.7"/>
		</g>
	</g>
</g>
<g>
	<polyline class="st1" points="24.3,288.4 24.3,223 18.6,223 18.6,212.6 88.4,212.6 88.4,288.4 	"/>
</g>
<g>
	<path class="st1" d="M88.4,288.8V270h-7.5c-4.3,0-8.5,1.6-11.7,4.6c0,0-0.8-2.3-3.7-4.6H47.6c-0.3,0-0.5,0-0.8,0
		c-5.7,0.5-8.5,5.6-5.2,10l1.2,1.5c-2.3,1.1-3.7,3.3-3.7,5.8v1.5 M45,256.2h12.6v-20.7H45V256.2L45,256.2z"/>
</g>
<g>
	<g>
		<g>
			<defs>
				<polygon id="SVGID_15_" points="227.3,81.2 220.4,71.4 179.1,71.4 72.3,130.9 72.3,142.6 181.4,142.6 221.5,143.5 221.5,119.7 
					221.5,87.5 				"/>
			</defs>
			<clipPath id="SVGID_16_">
				<use xlink:href="#SVGID_15_"  style="overflow:visible;"/>
			</clipPath>
			<rect x="67.3" y="66.5" class="st9" width="164.9" height="82.1"/>
		</g>
	</g>
</g>
<g>
	<polygon class="st1" points="227.3,81.2 220.4,71.4 179.1,71.4 72.3,130.9 72.3,142.6 181.4,142.6 221.5,143.5 221.5,119.7 
		221.5,87.5 	"/>
</g>
<g>
	<g>
		<g>
			<defs>
				<rect id="SVGID_17_" x="382.2" y="164.4" width="6.9" height="42.5"/>
			</defs>
			<clipPath id="SVGID_18_">
				<use xlink:href="#SVGID_17_"  style="overflow:visible;"/>
			</clipPath>
			<rect x="377.2" y="159.4" class="st10" width="16.9" height="52.4"/>
		</g>
	</g>
</g>
<polyline class="st1" points="389.1,206.9 389.1,164.4 382.2,164.4 382.2,206.9 "/>
<g>
	<g>
		<g>
			<defs>
				<path id="SVGID_19_" d="M401.7,178c0,10.8-7.2,14.9-16.1,14.9s-16.1-4.1-16.1-14.9c0-10.8,16.1-34.3,16.1-34.3
					S401.7,167.2,401.7,178"/>
			</defs>
			<clipPath id="SVGID_20_">
				<use xlink:href="#SVGID_19_"  style="overflow:visible;"/>
			</clipPath>
			<rect x="364.6" y="138.8" class="st11" width="42.1" height="59.2"/>
		</g>
	</g>
</g>
<path class="st1" d="M401.7,178c0,10.8-7.2,14.9-16.1,14.9s-16.1-4.1-16.1-14.9c0-10.8,16.1-34.3,16.1-34.3S401.7,167.2,401.7,178
	L401.7,178z"/>
<g>
	<g>
		<g>
			<defs>
				<polyline id="SVGID_21_" points="221.5,288.4 221.5,87.5 183.7,87.5 88.4,141.5 88.4,288.4 				"/>
			</defs>
			<clipPath id="SVGID_22_">
				<use xlink:href="#SVGID_21_"  style="overflow:visible;"/>
			</clipPath>
			<rect x="83.4" y="82.5" class="st12" width="143.1" height="210.8"/>
		</g>
	</g>
</g>
<g>
	<path class="st1" d="M221.5,288.4V87.5h-37.9l-95.3,53.9v146.9 M74.1,142.7l109.5-61.5h43.6 M402.9,186.8H221.5 M402.9,197.7H221.5
		 M389.7,186.2v20.7 M235.9,186.2v20.7 M311.6,186.2v20.7"/>
</g>
<g>
	<g>
		<g>
			<defs>
				<rect id="SVGID_23_" x="221.5" y="206.9" width="180.2" height="81.5"/>
			</defs>
			<clipPath id="SVGID_24_">
				<use xlink:href="#SVGID_23_"  style="overflow:visible;"/>
			</clipPath>
			<rect x="216.6" y="201.9" class="st13" width="190.2" height="91.5"/>
		</g>
	</g>
</g>
<g>
	<polyline class="st1" points="221.5,288.4 221.5,206.9 401.7,206.9 401.7,288.4 	"/>
</g>
<g>
	<g>
		<g>
			<defs>
				<line id="SVGID_25_" x1="280.1" y1="233.3" x2="280.1" y2="262"/>
			</defs>
			<clipPath id="SVGID_26_">
				<use xlink:href="#SVGID_25_"  style="overflow:visible;"/>
			</clipPath>
			<rect x="275.1" y="228.3" class="st14" width="10" height="38.7"/>
		</g>
	</g>
</g>
<line class="st1" x1="280.1" y1="233.3" x2="280.1" y2="260.8"/>
<path class="st6" d="M296.7,234.4v4.6 M299.6,247.1c0,1.3-1,2.3-2.3,2.3s-2.3-1-2.3-2.3s1-2.3,2.3-2.3S299.6,245.8,299.6,247.1
	L299.6,247.1z"/>
<g>
	<g>
		<g>
			<defs>
				<line id="SVGID_27_" x1="304.2" y1="250.5" x2="306.5" y2="252.8"/>
			</defs>
			<clipPath id="SVGID_28_">
				<use xlink:href="#SVGID_27_"  style="overflow:visible;"/>
			</clipPath>
			<rect x="299.2" y="245.5" class="st15" width="12.3" height="12.3"/>
		</g>
	</g>
</g>
<line class="st6" x1="304.2" y1="250.5" x2="306.5" y2="252.8"/>
<g>
	<g>
		<g>
			<defs>
				<line id="SVGID_29_" x1="288.1" y1="250.5" x2="285.8" y2="253.9"/>
			</defs>
			<clipPath id="SVGID_30_">
				<use xlink:href="#SVGID_29_"  style="overflow:visible;"/>
			</clipPath>
			<rect x="280.8" y="245.5" class="st16" width="12.3" height="13.4"/>
		</g>
	</g>
</g>
<line class="st6" x1="288.1" y1="250.5" x2="285.8" y2="253.9"/>
<g>
	<g>
		<g>
			<defs>
				<line id="SVGID_31_" x1="300.7" y1="253.9" x2="301.9" y2="257.4"/>
			</defs>
			<clipPath id="SVGID_32_">
				<use xlink:href="#SVGID_31_"  style="overflow:visible;"/>
			</clipPath>
			<rect x="295.7" y="249" class="st17" width="11.1" height="13.4"/>
		</g>
	</g>
</g>
<line class="st6" x1="300.7" y1="253.9" x2="301.9" y2="257.4"/>
<line class="st6" x1="293.5" y1="253.9" x2="292.4" y2="257.4"/>
<g>
	<g>
		<g>
			<defs>
				<path id="SVGID_33_" d="M286,246.9v-1c0-4.1,4.4-6.7,11.3-6.7s11.3,2.6,11.3,6.7v1H286L286,246.9z"/>
			</defs>
			<clipPath id="SVGID_34_">
				<use xlink:href="#SVGID_33_"  style="overflow:visible;"/>
			</clipPath>
			<rect x="281" y="234.2" class="st18" width="32.6" height="17.7"/>
		</g>
	</g>
</g>
<g>
	<g>
		<g>
			<defs>
				<path id="SVGID_35_" d="M297.3,238.2c-7.5,0-12.3,3-12.3,7.7v2h2h20.7h2v-2C309.6,241.2,304.8,238.2,297.3,238.2 M297.3,240.2
					c5.7,0,10.3,1.9,10.3,5.7H287C287,242.1,291.6,240.2,297.3,240.2"/>
			</defs>
			<clipPath id="SVGID_36_">
				<use xlink:href="#SVGID_35_"  style="overflow:visible;"/>
			</clipPath>
			<rect x="280" y="233.2" class="st19" width="34.6" height="19.7"/>
		</g>
	</g>
</g>
<g>
	<g>
		<g>
			<defs>
				<rect id="SVGID_37_" x="126.9" y="275.2" width="6.9" height="4.6"/>
			</defs>
			<clipPath id="SVGID_38_">
				<use xlink:href="#SVGID_37_"  style="overflow:visible;"/>
			</clipPath>
			<rect x="121.9" y="270.2" class="st20" width="16.9" height="14.6"/>
		</g>
	</g>
</g>
<polygon class="st6" points="126.9,279.8 133.7,279.8 133.7,275.2 126.9,275.2 "/>
<g>
	<g>
		<g>
			<defs>
				<rect id="SVGID_39_" x="123.4" y="279.8" width="25.3" height="8.6"/>
			</defs>
			<clipPath id="SVGID_40_">
				<use xlink:href="#SVGID_39_"  style="overflow:visible;"/>
			</clipPath>
			<rect x="118.4" y="274.8" class="st21" width="35.2" height="18.6"/>
		</g>
	</g>
</g>
<g>
	<polyline class="st6" points="148.7,288.4 148.7,279.8 123.4,279.8 123.4,288.4 	"/>
</g>
<g>
	<g>
		<g>
			<defs>
				<line id="SVGID_41_" x1="148.1" y1="284.4" x2="122.8" y2="284.4"/>
			</defs>
			<clipPath id="SVGID_42_">
				<use xlink:href="#SVGID_41_"  style="overflow:visible;"/>
			</clipPath>
			<rect x="117.8" y="279.4" class="st22" width="35.2" height="10"/>
		</g>
	</g>
</g>
<g>
	<line class="st6" x1="148.1" y1="284.4" x2="122.8" y2="284.4"/>
</g>
<g>
	<g>
		<g>
			<defs>
				<line id="SVGID_43_" x1="145.2" y1="284.9" x2="145.2" y2="288.4"/>
			</defs>
			<clipPath id="SVGID_44_">
				<use xlink:href="#SVGID_43_"  style="overflow:visible;"/>
			</clipPath>
			<rect x="140.2" y="279.9" class="st23" width="10" height="13.4"/>
		</g>
	</g>
</g>
<g>
	<line class="st6" x1="145.2" y1="284.9" x2="145.2" y2="288.4"/>
</g>
<g>
	<g>
		<g>
			<defs>
				<path id="SVGID_45_" d="M125.2,275.8h18.6c0.9,0,1.6-0.7,1.6-1.6V259c0-0.9-0.7-1.6-1.6-1.6h-18.6c-0.9,0-1.6,0.7-1.6,1.6v15.1
					C123.6,275,124.3,275.8,125.2,275.8"/>
			</defs>
			<clipPath id="SVGID_46_">
				<use xlink:href="#SVGID_45_"  style="overflow:visible;"/>
			</clipPath>
			<rect x="118.6" y="252.4" class="st24" width="31.8" height="28.3"/>
		</g>
	</g>
</g>
<path class="st6" d="M125.2,275.8h18.6c0.9,0,1.6-0.7,1.6-1.6V259c0-0.9-0.7-1.6-1.6-1.6h-18.6c-0.9,0-1.6,0.7-1.6,1.6v15.1
	C123.6,275,124.3,275.8,125.2,275.8L125.2,275.8z"/>
<g>
	<g>
		<g>
			<defs>
				<rect id="SVGID_47_" x="167.6" y="178.2" width="2.3" height="8"/>
			</defs>
			<clipPath id="SVGID_48_">
				<use xlink:href="#SVGID_47_"  style="overflow:visible;"/>
			</clipPath>
			<rect x="162.6" y="173.2" class="st25" width="12.3" height="18"/>
		</g>
	</g>
</g>
<g>
	<g>
		<g>
			<defs>
				<polygon id="SVGID_49_" points="176.8,179.3 160.7,179.3 163.2,169 174.3,169 				"/>
			</defs>
			<clipPath id="SVGID_50_">
				<use xlink:href="#SVGID_49_"  style="overflow:visible;"/>
			</clipPath>
			<rect x="155.7" y="164" class="st26" width="26" height="20.3"/>
		</g>
	</g>
</g>
<polygon class="st6" points="176.8,179.3 160.7,179.3 163.2,169 174.3,169 "/>
<g>
	<g>
		<g>
			<defs>
				<line id="SVGID_51_" x1="160.7" y1="159.8" x2="164.2" y2="163.3"/>
			</defs>
			<clipPath id="SVGID_52_">
				<use xlink:href="#SVGID_51_"  style="overflow:visible;"/>
			</clipPath>
			<rect x="155.7" y="154.8" class="st27" width="13.4" height="13.4"/>
		</g>
	</g>
</g>
<line class="st6" x1="160.7" y1="159.8" x2="164.2" y2="163.3"/>
<g>
	<g>
		<g>
			<defs>
				<line id="SVGID_53_" x1="168.7" y1="154.1" x2="168.7" y2="163.3"/>
			</defs>
			<clipPath id="SVGID_54_">
				<use xlink:href="#SVGID_53_"  style="overflow:visible;"/>
			</clipPath>
			<rect x="163.8" y="149.1" class="st28" width="10" height="19.2"/>
		</g>
	</g>
</g>
<line class="st6" x1="168.7" y1="154.1" x2="168.7" y2="163.3"/>
<g>
	<g>
		<g>
			<defs>
				<line id="SVGID_55_" x1="176.8" y1="159.8" x2="173.3" y2="163.3"/>
			</defs>
			<clipPath id="SVGID_56_">
				<use xlink:href="#SVGID_55_"  style="overflow:visible;"/>
			</clipPath>
			<rect x="168.3" y="154.8" class="st29" width="13.4" height="13.4"/>
		</g>
	</g>
</g>
<line class="st6" x1="176.8" y1="159.8" x2="173.3" y2="163.3"/>
<g>
	<g>
		<g>
			<defs>
				<path id="SVGID_57_" d="M184.4,256.9c-2.4,0-4.9,0.9-6,2.5c-2,2.9-2,4.5-2.3,6.2c-0.4,1.5-0.5,3.6-4.2,3.6c-0.4,0-0.8,0-1.3-0.1
					c-2.3-0.2-4.1-0.3-5.4-0.3l0,0c-1.3,0-2.3,1.2-2.1,2.5c0.7,4.4,2.3,13.7,2.3,13.7h21.8v-27.5
					C186.3,257.1,185.4,256.9,184.4,256.9 M184.4,258.9c0.3,0,0.5,0,0.8,0v24H167c-0.5-2.9-1.5-8.8-2-12v-0.1h0.1
					c1.7,0,3.4,0.1,5.3,0.3c0.5,0.1,1,0.1,1.5,0.1c5,0,5.7-3.3,6.1-4.8c0-0.1,0-0.2,0.1-0.3c0.1-0.3,0.1-0.6,0.2-1
					c0.2-1.3,0.5-2.5,1.9-4.5C180.6,259.7,182.4,258.9,184.4,258.9"/>
			</defs>
			<clipPath id="SVGID_58_">
				<use xlink:href="#SVGID_57_"  style="overflow:visible;"/>
			</clipPath>
			<rect x="158" y="251.9" class="st30" width="34.1" height="38"/>
		</g>
	</g>
</g>
<g>
	<g>
		<g>
			<defs>
				<polygon id="SVGID_59_" points="169.6,283.9 168.9,280.2 186.2,280.2 186.2,283.9 				"/>
			</defs>
			<clipPath id="SVGID_60_">
				<use xlink:href="#SVGID_59_"  style="overflow:visible;"/>
			</clipPath>
			<rect x="163.9" y="275.2" class="st31" width="27.3" height="13.7"/>
		</g>
	</g>
</g>
<g>
	<g>
		<g>
			<defs>
				<path id="SVGID_61_" d="M187.2,279.2h-19.5l1.1,5.7h18.4V279.2L187.2,279.2z M185.2,281.2v1.7h-14.7l-0.4-1.7H185.2L185.2,281.2
					z"/>
			</defs>
			<clipPath id="SVGID_62_">
				<use xlink:href="#SVGID_61_"  style="overflow:visible;"/>
			</clipPath>
			<rect x="162.7" y="274.2" class="st32" width="29.5" height="15.7"/>
		</g>
	</g>
</g>
<g>
	<g>
		<g>
			<defs>
				<polygon id="SVGID_63_" points="165.4,288.4 167.7,288.4 168.8,284.9 165.4,284.9 				"/>
			</defs>
			<clipPath id="SVGID_64_">
				<use xlink:href="#SVGID_63_"  style="overflow:visible;"/>
			</clipPath>
			<rect x="160.4" y="279.9" class="st33" width="13.4" height="13.4"/>
		</g>
	</g>
</g>
<path class="st6" d="M181.4,275.8c-7.1-0.8-12.1,0.6-13.2,2.3v1.1"/>
<g>
	<g>
		<g>
			<defs>
				<path id="SVGID_65_" d="M183.3,283.9c-0.7-2-2.6-8.2-3.2-11.7c-0.1-0.3,0-0.7,0.3-0.9c0.2-0.3,0.5-0.4,0.9-0.4
					c1,0,3.2,0.1,5,0.2V284h-3V283.9z"/>
			</defs>
			<clipPath id="SVGID_66_">
				<use xlink:href="#SVGID_65_"  style="overflow:visible;"/>
			</clipPath>
			<rect x="175.1" y="265.9" class="st34" width="16.1" height="23"/>
		</g>
	</g>
</g>
<g>
	<g>
		<g>
			<defs>
				<path id="SVGID_67_" d="M181.2,269.9c-1.3,0-2.3,1.2-2.1,2.5c0.7,4.4,3.5,12.6,3.5,12.6h4.6v-14.8
					C185.2,270,182.4,269.9,181.2,269.9L181.2,269.9L181.2,269.9z M181.2,269.9v2c0.8,0,2.4,0,4,0.1v10.9H184
					c-0.8-2.5-2.4-7.8-3-10.9v-0.1h0.1L181.2,269.9L181.2,269.9L181.2,269.9z"/>
			</defs>
			<clipPath id="SVGID_68_">
				<use xlink:href="#SVGID_67_"  style="overflow:visible;"/>
			</clipPath>
			<rect x="174.1" y="264.9" class="st35" width="18.1" height="25"/>
		</g>
	</g>
</g>
<path class="st6" d="M391.4,260.8l2.3-9.2L389,251c-2,0-3.8,1.3-4.5,3.2l-2.3,6.6 M365,260.8h-13.8l-1.9-5.6
	c-0.2-0.6,0.3-1.3,0.9-1.3H362c0.4,0,0.8,0.3,0.9,0.7L365,260.8L365,260.8z M362.7,260.8h-8.8l-1.4-4.4c0-0.1,0-0.2,0.1-0.2h8.5
	c0.1,0,0.1,0,0.1,0.1L362.7,260.8L362.7,260.8z M390.3,251.6l-2.3,9.2"/>
<g>
	<g>
		<g>
			<defs>
				<path id="SVGID_69_" d="M122.8,233.9h22.4c-3.7,13.8-15.5,41.3-15.5,41.3l1.7,13.8h-8.6"/>
			</defs>
			<clipPath id="SVGID_70_">
				<use xlink:href="#SVGID_69_"  style="overflow:visible;"/>
			</clipPath>
			<rect x="117.8" y="228.9" class="st36" width="32.4" height="65.1"/>
		</g>
	</g>
</g>
<g>
	<path class="st6" d="M123.5,233.2h22.4c-3.7,13.8-16.1,42-16.1,42l1.3,13.7H123 M134.3,244.8c0,0-6.6,24.4-8,28.7"/>
</g>
<g>
	<g>
		<g>
			<defs>
				<polygon id="SVGID_71_" points="122.3,268.9 132,273.5 130.4,276.9 122.3,272.3 				"/>
			</defs>
			<clipPath id="SVGID_72_">
				<use xlink:href="#SVGID_71_"  style="overflow:visible;"/>
			</clipPath>
			<rect x="117.3" y="263.9" class="st37" width="19.7" height="18"/>
		</g>
	</g>
</g>
<g>
	<polygon class="st6" points="122.9,268.9 132,273.5 130.4,276.9 122.7,272.3 	"/>
	<path class="st1" d="M122.8,288.4v-55.1h64.3v55.1 M155,233.3v55.1 M247.9,260.8h64.3v-27.5h-64.3L247.9,260.8L247.9,260.8z
		 M337.5,260.8h64.3v-27.5h-64.3V260.8L337.5,260.8z M129.7,186.2h50.5v-36.7h-50.5V186.2L129.7,186.2z M155,149.5v36.7"/>
</g>
<g>
	<g>
		<g>
			<defs>
				<rect id="SVGID_73_" y="287.8" width="480" height="2"/>
			</defs>
			<clipPath id="SVGID_74_">
				<use xlink:href="#SVGID_73_"  style="overflow:visible;"/>
			</clipPath>
			<rect x="-4.4" y="282.9" class="st38" width="488.9" height="12"/>
		</g>
	</g>
</g>
</svg>
