<svg xmlns="http://www.w3.org/2000/svg" viewBox="0 0 480 290"><title>home-bg-getting-started-update</title><path d="M275.76,288.92c4.43-12.46,9.55-26.06,16-40.32l25.54-8.36c5.38-.9,12-8.1,12-8.1l6.17-13.4L313.29,199.2,307,185.42l-23.32,6.49c-5.56,12.77-12.23,32.56-12.23,32.56l-20.73,27.76" fill="none" stroke="#3e0d86" stroke-miterlimit="10" stroke-width="2"/><path d="M309.6,225.3l-16.27-13.43a5.19,5.19,0,0,1-.59-7.43l36.95-40.87a5.19,5.19,0,0,1,7.12-.63l16,12.71a5.19,5.19,0,0,1,.7,7.44l-36.64,41.59A5.19,5.19,0,0,1,309.6,225.3Z" fill="#eaeaf4" stroke="#14bfff" stroke-linejoin="round" stroke-width="2"/><path d="M346.79,171a5.19,5.19,0,0,1,.7,7.44l-36.64,41.59a5.19,5.19,0,0,1-7.24.62" fill="#eaeaf4" stroke="#14bfff" stroke-linejoin="round" stroke-width="2"/><path d="M283.71,191.91l21.93-11.38s4.56,4.64,0,9.62a34.6,34.6,0,0,1-11.06,7.75" fill="#eaeaf4" stroke="#3e0d86" stroke-miterlimit="10" stroke-width="2"/><path d="M343,197l-7.35-2.25a11.62,11.62,0,0,0-6.18-.17l-9.66,2.38a4.16,4.16,0,0,0-3.13,3.82h0a4.11,4.11,0,0,0,4.35,4.37l7.55-.53,4.8,4.63-11.94,1.43-9.11,2.94a4.18,4.18,0,0,0-2.86,4.24h0a4.11,4.11,0,0,0,4.23,3.9l9-.35-8.41,5.29a4.54,4.54,0,0,0-1.75,5.59h0a4.38,4.38,0,0,0,5,2.6l11.77-2.71C338.4,220.94,343.1,209.15,343,197Z" fill="#eaeaf4" stroke="#3e0d86" stroke-miterlimit="10" stroke-width="2"/><path d="M111.71,289.1S108.2,239,108.2,217.64s16-41,16-41c15.44-20.59,28.3-31.21,28.3-31.21" fill="#eaeaf4" stroke="#3e0d86" stroke-miterlimit="10" stroke-width="2"/><path d="M216,144.18a123.84,123.84,0,0,0-16.61,29.52s40.74,56.5,48.24,70.1c8.51,15.43.18,34.95-4.6,44.9" fill="none" stroke="#3e0d86" stroke-miterlimit="10" stroke-width="2"/><path d="M206.82,138.74l22.81,12.62c8.53,1.83,14.79-2.15,17.46-10.46a21.11,21.11,0,0,1,5.45-9,.68.68,0,0,0,.09-.89l-.5-4.27L256.3,123l2.64-10.55,10.8-1.78a5.08,5.08,0,0,0,2.63-6.8c-2.26-4.87-5.56-14.28-8.82-22.63,2.08-14.93,13-66.54-60.6-78.46-30.42-4.93-56.45,15.46-67.45,42.35C120.92,80.73,107,112.65,107,112.65s19.29,25.72,41.26,31.63c17.61,4.74,26.88,3.75,35.25,20.13" fill="#eaeaf4" stroke="#3e0d86" stroke-miterlimit="10" stroke-width="2"/><line x1="175.89" y1="240.83" x2="171.66" y2="289.1" fill="#eaeaf4" stroke="#3e0d86" stroke-linejoin="round" stroke-width="2"/><path d="M109.66,260.38c27.14,2.26,63.67,4.07,63.67,4.07" fill="#eaeaf4" stroke="#3e0d86" stroke-linejoin="round" stroke-width="2"/><path d="M124.52,175.79c26.38-6,49.21,10,59,19.77s32.83,43.66,50.17,27.83" fill="none" stroke="#3e0d86" stroke-linejoin="round" stroke-width="2"/><path d="M182,164.2c19-13.71,10.27-19.12,16.49-41.84s24.46-33.5,31.48-83.89" fill="none" stroke="#3e0d86" stroke-miterlimit="10" stroke-width="2"/><path d="M206.77,62.63c-4.16,16.16-15,27.46-23.74,39.31-14.06,19-.61,23.51-2.46,38.19" fill="none" stroke="#3e0d86" stroke-miterlimit="10" stroke-width="2"/><path d="M180.21,89.37c-13.34,11.08-15.76,20.25-12.76,29" fill="none" stroke="#3e0d86" stroke-miterlimit="10" stroke-width="2"/><path d="M228.64,36.76C241,57.51,265.8,54.12,265.8,54.12" fill="none" stroke="#3e0d86" stroke-miterlimit="10" stroke-width="2"/><path d="M251,81.26a6,6,0,1,1-11.6-3.3c.91-3.2,3.35.11,6.55,1S252,78.06,251,81.26Z" fill="#3e0d86"/><path d="M252.13,126.72c-4-1-9.8-4.77-9.8-4.77" fill="none" stroke="#3e0d86" stroke-miterlimit="10" stroke-width="2"/><line x1="51.7" y1="288.7" x2="381.7" y2="288.7" fill="none" stroke="#3e0d86" stroke-miterlimit="10" stroke-width="2"/></svg>